<?xml version="1.0" encoding="UTF-8"?>
<svg viewBox="0 0 1024 1024" xmlns="http://www.w3.org/2000/svg">
  <circle cx="512" cy="512" r="400" fill="#ffffff" stroke="#000000" stroke-width="40"/>
  <circle cx="512" cy="512" r="120" fill="#ffffff" stroke="#000000" stroke-width="30"/>
  <path d="M512,112 A400,400 0 0,1 912,512 L512,512 Z" fill="#f44336"/>
  <path d="M912,512 A400,400 0 0,1 712,872 L512,512 Z" fill="#4caf50"/>
  <path d="M712,872 A400,400 0 0,1 312,872 L512,512 Z" fill="#2196f3"/>
  <path d="M312,872 A400,400 0 0,1 112,512 L512,512 Z" fill="#ffeb3b"/>
  <path d="M112,512 A400,400 0 0,1 312,152 L512,512 Z" fill="#f44336"/>
  <path d="M312,152 A400,400 0 0,1 712,152 L512,512 Z" fill="#2196f3"/>
  <path d="M712,152 A400,400 0 0,1 912,512 L512,512 Z" fill="#ffeb3b"/>
  <path d="M512,12 L562,100 A50,50 0 0 1 462,100 Z" fill="#d32f2f" stroke="#000000" stroke-width="20"/>
</svg>
